<svg width="177" height="129" viewBox="0 0 177 129" fill="none" xmlns="http://www.w3.org/2000/svg">
<path d="M176.785 59.356V29.1708H145.526V16.2582L145.644 6.10352e-05H115.257V98.7561C115.257 102.725 116.04 106.655 117.561 110.321C119.081 113.987 121.31 117.317 124.119 120.121C126.928 122.925 130.263 125.147 133.932 126.66C137.601 128.174 141.532 128.949 145.501 128.941L176.785 128.891V99.2005H153.349C152.312 99.2016 151.284 98.998 150.325 98.6015C149.367 98.205 148.495 97.6232 147.762 96.8895C147.028 96.1559 146.446 95.2847 146.05 94.3259C145.653 93.3672 145.45 92.3396 145.451 91.302V79.5633H145.535C145.535 72.8555 145.535 66.1477 145.535 59.3308L176.785 59.356Z" fill="#FF4205"/>
<path d="M81.1476 29.1708H104.877V6.10352e-05H74.6913V129H104.877V53.0909C104.877 50.1218 103.537 47.3113 101.23 45.4421L81.1476 29.1708Z" fill="#FF4205"/>
<path d="M30.1852 91.302V0H0V98.756C-7.50294e-06 102.725 0.782696 106.655 2.30332 110.321C3.82393 113.987 6.05261 117.317 8.86179 120.121C11.671 122.925 15.0055 125.147 18.6745 126.66C22.3435 128.174 26.275 128.949 30.2439 128.941L64.2442 128.891V99.2004H38.0837C35.9889 99.2004 33.9799 98.3683 32.4986 96.887C31.0174 95.4058 30.1852 93.3968 30.1852 91.302Z" fill="#FF4205"/>
</svg>
